<?xml version="1.0" encoding="UTF-8" standalone="no"?>
<!-- Generator: Adobe Illustrator 16.0.0, SVG Export Plug-In . SVG Version: 6.00 Build 0)  -->

<svg
   xmlns:dc="http://purl.org/dc/elements/1.1/"
   xmlns:cc="http://creativecommons.org/ns#"
   xmlns:rdf="http://www.w3.org/1999/02/22-rdf-syntax-ns#"
   xmlns:svg="http://www.w3.org/2000/svg"
   xmlns="http://www.w3.org/2000/svg"
   xmlns:sodipodi="http://sodipodi.sourceforge.net/DTD/sodipodi-0.dtd"
   xmlns:inkscape="http://www.inkscape.org/namespaces/inkscape"
   version="1.1"
   id="Calque_1"
   x="0px"
   y="0px"
   width="39"
   height="39"
   viewBox="0 0 39 39"
   enable-background="new 0 0 150 37"
   xml:space="preserve"
   inkscape:version="0.91 r13725"
   sodipodi:docname="symfony.svg"><metadata
     id="metadata4230"><rdf:RDF><cc:Work
         rdf:about=""><dc:format>image/svg+xml</dc:format><dc:type
           rdf:resource="http://purl.org/dc/dcmitype/StillImage" /><dc:title></dc:title></cc:Work></rdf:RDF></metadata><defs
     id="defs4228" /><sodipodi:namedview
     pagecolor="#ffffff"
     bordercolor="#666666"
     borderopacity="1"
     objecttolerance="10"
     gridtolerance="10"
     guidetolerance="10"
     inkscape:pageopacity="0"
     inkscape:pageshadow="2"
     inkscape:window-width="1274"
     inkscape:window-height="705"
     id="namedview4226"
     showgrid="false"
     inkscape:zoom="5.3733333"
     inkscape:cx="74.556458"
     inkscape:cy="17.551186"
     inkscape:window-x="0"
     inkscape:window-y="0"
     inkscape:window-maximized="0"
     inkscape:current-layer="Calque_1" /><path
     inkscape:connector-curvature="0"
     style="fill:#8a8a8a;fill-opacity:1"
     id="path4206"
     d="m 19.654521,1.0694789 c -10.2299999,0 -18.5249999,8.293 -18.5249999,18.5240001 0,10.231 8.294,18.527 18.5249999,18.527 10.231,0 18.526,-8.295 18.526,-18.527 0,-10.2310001 -8.294,-18.5240001 -18.526,-18.5240001 z m 9.99,10.7210001 c -0.858,0.03 -1.45,-0.482 -1.477,-1.261 -0.009,-0.286 0.064,-0.5350001 0.26,-0.8270001 0.191,-0.374 0.231,-0.416 0.226,-0.58 -0.016,-0.49 -0.757,-0.509 -0.96,-0.5 -2.781,0.092 -3.514,3.8450001 -4.108,6.8970001 l -0.291,1.609 c 1.601,0.234 2.738,-0.055 3.371,-0.465 0.893,-0.579 -0.249,-1.175 -0.106,-1.834 0.147,-0.673 0.758,-0.996 1.244,-1.01 0.679,-0.016 1.165,0.689 1.15,1.405 -0.023,1.182 -1.593,2.808 -4.733,2.743 -0.383,-0.01 -0.735,-0.037 -1.063,-0.076 l -0.593,3.27 c -0.531,2.475 -1.236,5.858 -3.756,8.81 -2.165,2.574 -4.362,2.974 -5.346,3.007 -1.84,0.062 -3.063,-0.918 -3.105,-2.229 -0.043,-1.268 1.079,-1.962 1.816,-1.986 0.982,-0.033 1.662,0.678 1.688,1.499 0.024,0.695 -0.337,0.912 -0.577,1.043 -0.161,0.128 -0.402,0.26 -0.393,0.547 0.006,0.122 0.139,0.404 0.546,0.39 0.779,-0.026 1.295,-0.411 1.656,-0.668 1.794,-1.494 2.484,-4.099 3.388,-8.84 l 0.189,-1.149 c 0.308,-1.542 0.65,-3.262 1.172,-4.974 -1.266,-0.952 -2.023,-2.131 -3.723,-2.593 -1.166,-0.317 -1.877,-0.048 -2.375,0.583 -0.593,0.748 -0.396,1.721 0.177,2.293 l 0.944,1.044 c 1.158,1.338 1.791,2.378 1.553,3.78 -0.377,2.235 -3.042,3.949 -6.19,2.982 -2.6879999,-0.829 -3.1909999,-2.732 -2.8669999,-3.78 0.284,-0.923 1.017,-1.097 1.734,-0.876 0.768,0.235 1.0679999,1.168 0.848,1.886 -0.024,0.075 -0.064,0.204 -0.144,0.375 -0.09,0.198 -0.254,0.371 -0.326,0.603 -0.172,0.562 0.5989999,0.962 1.1369999,1.127 1.202,0.37 2.374,-0.259 2.673,-1.231 0.277,-0.896 -0.289,-1.519 -0.523,-1.758 l -1.138,-1.219 c -0.522,-0.581 -1.6669999,-2.198 -1.108,-4.015 0.215,-0.699 0.669,-1.443 1.328,-1.934 1.39,-1.037 2.901,-1.208 4.342,-0.794 1.863,0.537 2.759,1.769 3.919,2.721 0.648,-1.905 1.549,-3.771 2.903,-5.344 1.222,-1.4350001 2.866,-2.4720001 4.747,-2.5380001 1.881,-0.062 3.302,0.79 3.35,2.1390001 0.018,0.574 -0.313,1.691 -1.459,1.728 z" /></svg>