<?xml version="1.0" encoding="UTF-8" standalone="no"?>
<svg
   version="1.0"
   width="1254.000000pt"
   height="1254.000000pt"
   viewBox="0 0 1254.000000 1254.000000"
   preserveAspectRatio="xMidYMid meet"
   id="svg17"
   sodipodi:docname="controller.svg"
   inkscape:version="1.4.3 (0d15f75042, 2025-12-25)"
   xmlns:inkscape="http://www.inkscape.org/namespaces/inkscape"
   xmlns:sodipodi="http://sodipodi.sourceforge.net/DTD/sodipodi-0.dtd"
   xmlns="http://www.w3.org/2000/svg"
   xmlns:svg="http://www.w3.org/2000/svg">
  <g
     transform="translate(0.000000,1254.000000) scale(0.100000,-0.100000)"
     fill="currentColor"
     stroke="none"
     id="g17">
    <path
       d="M4090 9564 c-14 -2 -59 -9 -100 -15 -41 -6 -139 -26 -217 -45 -377 -91 -737 -260 -834 -391 -20 -26 -44 -70 -52 -97 -18 -51 -34 -176 -24 -176 4 0 34 18 68 40 260 168 644 306 1048 377 119 21 189 26 384 30 130 3 237 7 237 9 0 14 -54 121 -76 150 -37 49 -106 94 -168 110 -46 12 -203 17 -266 8z"
       id="path1" />
    <path
       d="M8176 9554 c-94 -30 -164 -91 -205 -179 -43 -91 -63 -82 206 -88 180 -3 268 -10 362 -26 414 -72 799 -210 1079 -388 29 -18 55 -33 58 -33 9 0 -7 112 -23 165 -9 28 -26 66 -39 86 -128 205 -804 460 -1254 475 -105 3 -146 1 -184 -12z"
       id="path2" />
    <path
       d="m 4190,9183 c -535,-51 -1063,-247 -1404,-522 -107,-86 -158,-157 -251,-346 -400,-814 -810,-2352 -922,-3465 -25,-251 -25,-809 0,-967 67,-426 253,-702 572,-849 129,-59 214,-78 355,-78 111,0 132,3 193,27 156,61 235,136 562,526 325,389 531,618 744,831 200,200 259,243 386,283 l 70,22 h 1775 1775 l 71,-22 c 89,-28 200,-100 300,-195 161,-153 501,-530 809,-898 328,-391 393,-456 517,-518 99,-50 176,-65 293,-59 323,18 614,214 762,512 112,225 148,439 147,865 -1,290 -16,510 -54,800 -141,1082 -550,2525 -918,3243 -48,95 -82,146 -130,198 -250,270 -766,502 -1314,591 l -133,22 -2085,1 c -1147,1 -2101,0 -2120,-2 z m 4803,-626 c 177,-87 253,-308 165,-480 -31,-61 -102,-131 -165,-162 -51,-26 -69,-29 -148,-30 -82,0 -96,3 -157,33 -43,21 -83,51 -112,83 -144,160 -112,415 67,530 70,46 121,59 213,56 64,-3 93,-9 137,-30 z M 3955,8335 c 33,-8 107,-38 165,-66 90,-45 116,-64 196,-143 55,-55 107,-119 132,-161 182,-312 129,-711 -127,-965 -90,-88 -188,-149 -315,-193 -87,-31 -97,-32 -246,-32 -149,1 -159,2 -250,33 -416,144 -644,591 -509,997 96,288 341,496 644,546 70,11 238,3 310,-16 z m 4300,-450 c 110,-29 199,-109 240,-217 28,-74 18,-206 -20,-276 -76,-141 -242,-217 -388,-179 -158,41 -256,161 -265,322 -5,101 19,172 85,245 91,102 215,139 348,105 z m 1432,-25 c 69,-34 128,-95 164,-168 19,-38 23,-64 24,-137 0,-82 -3,-96 -33,-157 -38,-77 -91,-128 -172,-166 -81,-38 -191,-37 -278,2 -179,82 -260,293 -177,462 87,178 296,250 472,164 z m -684,-674 c 124,-60 206,-203 194,-337 -11,-121 -90,-234 -205,-290 -39,-20 -63,-24 -142,-24 -84,0 -102,3 -151,28 -67,32 -142,109 -172,175 -31,68 -31,208 0,276 42,89 114,155 208,189 75,27 195,19 268,-17 z M 5053,6765 c 184,-32 315,-101 453,-239 105,-105 159,-190 206,-327 32,-91 33,-99 32,-254 0,-148 -2,-167 -28,-245 -129,-395 -515,-639 -916,-581 -283,42 -543,242 -649,499 -50,120 -65,196 -65,327 -1,130 9,186 56,304 110,280 362,475 678,524 58,9 153,6 233,-8 z m 2632,0 c 307,-64 547,-297 622,-603 24,-98 21,-274 -6,-377 -108,-414 -521,-672 -935,-587 -254,53 -458,215 -571,455 -46,97 -65,173 -71,292 -20,346 193,665 526,789 124,46 301,58 435,31 z"
       id="path3"
       sodipodi:nodetypes="ccccccsccscccccccccccccccccccccccccccccccccccccccccccccccccsccccccsccccccsccccccccccccccccc" />
    <path
       d="M6172 8701 c-67 -23 -118 -64 -156 -126 -25 -41 -30 -61 -34 -130 -6 -104 19 -166 89 -229 160 -144 414 -75 474 127 32 109 10 202 -68 282 -87 88 -193 115 -305 76z"
       id="path4" />
    <path
       d="m 3665,8174 c -318,-50 -559,-348 -530,-659 15,-159 81,-292 200,-403 113,-106 258,-162 418,-162 174,0 299,52 423,175 89,89 141,178 170,295 23,89 15,251 -15,340 -63,183 -217,333 -401,391 -64,20 -205,32 -265,23 z"
       id="path6"
       sodipodi:nodetypes="cccsccccc" />
    <path
       d="M6857 7554 c-17 -17 13 -24 109 -24 86 0 104 3 104 15 0 12 -18 15 -103 15 -57 0 -107 -3 -110 -6z"
       id="path11" />
    <path
       d="M6860 7470 c0 -20 5 -21 103 -18 83 2 102 6 102 18 0 12 -19 16 -102 18 -98 3 -103 2 -103 -18z"
       id="path12" />
    <path
       d="M6860 7390 c0 -20 5 -21 103 -18 83 2 102 6 102 18 0 12 -19 16 -102 18 -98 3 -103 2 -103 -18z"
       id="path13" />
    <path
       d="M4764 6600 c-16 -5 -41 -21 -55 -36 -23 -25 -24 -30 -27 -214 l-3 -189 -189 -3 -190 -3 -32 -33 -33 -32 -3 -143 c-6 -251 -1 -257 265 -257 l182 0 3 -189 c4 -255 -1 -250 236 -252 163 -2 198 7 220 56 8 17 12 88 12 205 l0 180 180 0 c266 0 270 4 270 235 0 229 -7 235 -274 235 l-176 0 0 180 c0 199 -6 226 -57 249 -35 16 -285 25 -329 11z"
       id="path15" />
    <path
       d="m 7367,6574 c -92,-22 -211,-89 -281,-158 -115,-114 -175,-244 -184,-402 -15,-286 163,-542 438,-625 104,-32 256,-33 355,-2 255,80 435,324 435,588 -1,285 -190,530 -465,600 -73,19 -220,18 -298,-1 z"
       id="path16"
       sodipodi:nodetypes="cccccccc" />
  </g>
</svg>
