<?xml version="1.0" encoding="UTF-8" standalone="no"?>
<!-- Generator: Adobe Illustrator 19.2.1, SVG Export Plug-In . SVG Version: 6.00 Build 0)  -->

<svg
   xmlns:dc="http://purl.org/dc/elements/1.1/"
   xmlns:cc="http://creativecommons.org/ns#"
   xmlns:rdf="http://www.w3.org/1999/02/22-rdf-syntax-ns#"
   xmlns:svg="http://www.w3.org/2000/svg"
   xmlns="http://www.w3.org/2000/svg"
   xmlns:xlink="http://www.w3.org/1999/xlink"
   xmlns:sodipodi="http://sodipodi.sourceforge.net/DTD/sodipodi-0.dtd"
   xmlns:inkscape="http://www.inkscape.org/namespaces/inkscape"
   version="1.1"
   id="Layer_1"
   x="0px"
   y="0px"
   viewBox="0 0 40.5 29.5"
   xml:space="preserve"
   inkscape:version="0.91 r13725"
   sodipodi:docname="docker.svg"
   width="40.5"
   height="29.5"><metadata
     id="metadata4260"><rdf:RDF><cc:Work
         rdf:about=""><dc:format>image/svg+xml</dc:format><dc:type
           rdf:resource="http://purl.org/dc/dcmitype/StillImage" /><dc:title></dc:title></cc:Work></rdf:RDF></metadata><defs
     id="defs4258"><linearGradient
       inkscape:collect="always"
       id="linearGradient4270"><stop
         style="stop-color:#ffffff;stop-opacity:1;"
         offset="0"
         id="stop4272" /><stop
         style="stop-color:#ffffff;stop-opacity:0;"
         offset="1"
         id="stop4274" /></linearGradient><radialGradient
       inkscape:collect="always"
       xlink:href="#linearGradient4270"
       id="radialGradient4278"
       cx="20.27"
       cy="15.5"
       fx="20.27"
       fy="15.5"
       r="19.33"
       gradientTransform="matrix(1,0,0,0.7190895,0,4.3541128)"
       gradientUnits="userSpaceOnUse" /></defs><sodipodi:namedview
     pagecolor="#ffffff"
     bordercolor="#666666"
     borderopacity="1"
     objecttolerance="10"
     gridtolerance="10"
     guidetolerance="10"
     inkscape:pageopacity="0"
     inkscape:pageshadow="2"
     inkscape:window-width="1281"
     inkscape:window-height="709"
     id="namedview4256"
     showgrid="false"
     inkscape:zoom="6.5795918"
     inkscape:cx="19.024983"
     inkscape:cy="15.873164"
     inkscape:window-x="0"
     inkscape:window-y="0"
     inkscape:window-maximized="0"
     inkscape:current-layer="Layer_1" /><style
     type="text/css"
     id="style4219">
	.st0{fill:#FFFFFF;}
	.st1{clip-path:url(#SVGID_4_);}
</style><g
     id="g4221"
     style="fill:#8a8a8a;fill-opacity:1;fill-rule:nonzero"
     transform="translate(0.02419357,-0.89640199)"><g
       id="g4223"
       style="fill:#8a8a8a;fill-opacity:1;fill-rule:nonzero"><g
         id="g4225"
         style="fill:#8a8a8a;fill-opacity:1;fill-rule:nonzero"><title
           id="title4227"
           style="fill:url(#radialGradient4278);fill-opacity:1">Group 3</title><desc
           id="desc4229"
           style="fill:url(#radialGradient4278);fill-opacity:1">Created with Sketch.</desc><g
           id="g4231"
           style="fill:#8a8a8a;fill-opacity:1;fill-rule:nonzero"><g
             id="g4233"
             style="fill:#8a8a8a;fill-opacity:1;fill-rule:nonzero"><g
               id="g4235"
               style="fill:#8a8a8a;fill-opacity:1;fill-rule:nonzero"><path
                 id="SVGID_1_"
                 class="st0"
                 d="m 8.7,24 c -1.1,0 -2.1,-0.9 -2.1,-2 0,-1.1 0.9,-2 2.1,-2 1.2,0 2.1,0.9 2.1,2 0,1.1 -1,2 -2.1,2 l 0,0 z M 34.5,13.1 C 34.3,11.5 33.3,10.2 32,9.2 L 31.5,8.8 31.1,9.3 c -0.8,0.9 -1.1,2.5 -1,3.7 0.1,0.9 0.4,1.8 0.9,2.5 -0.4,0.2 -0.9,0.4 -1.3,0.6 -0.9,0.3 -1.8,0.4 -2.7,0.4 L 1.1,16.5 1,17.1 C 0.8,19 1.1,21 1.9,22.8 l 0.4,0.7 0,0.1 c 2.4,4 6.7,5.8 11.4,5.8 9,0 16.4,-3.9 19.9,-12.3 2.3,0.1 4.6,-0.5 5.7,-2.7 l 0.3,-0.5 -0.5,-0.3 C 37.8,12.8 36,12.7 34.5,13.1 l 0,0 z m -12.9,-1.6 -3.9,0 0,3.9 3.9,0 0,-3.9 z m 0,-4.9 -3.9,0 0,3.9 3.9,0 0,-3.9 z m 0,-5 -3.9,0 0,3.9 3.9,0 0,-3.9 z m 4.8,9.9 -3.9,0 0,3.9 3.9,0 0,-3.9 z m -14.5,0 -3.9,0 0,3.9 3.9,0 0,-3.9 z m 4.9,0 -3.9,0 0,3.9 3.9,0 0,-3.9 z m -9.7,0 -3.9,0 0,3.9 3.9,0 0,-3.9 0,0 z m 9.7,-4.9 -3.9,0 0,3.9 3.9,0 0,-3.9 z m -4.9,0 -3.9,0 0,3.9 3.9,0 0,-3.9 z"
                 style="fill:#8a8a8a;fill-opacity:1;fill-rule:nonzero"
                 inkscape:connector-curvature="0" /></g><g
               id="g4238"
               style="fill:#8a8a8a;fill-opacity:1;fill-rule:nonzero"><g
                 id="g4240"
                 style="fill:#8a8a8a;fill-opacity:1;fill-rule:nonzero"><defs
                   id="defs4242"
                   style="fill:url(#radialGradient4278);fill-opacity:1"><path
                     id="SVGID_2_"
                     d="m 8.7,24 c -1.1,0 -2.1,-0.9 -2.1,-2 0,-1.1 0.9,-2 2.1,-2 1.2,0 2.1,0.9 2.1,2 0,1.1 -1,2 -2.1,2 l 0,0 z M 34.5,13.1 C 34.3,11.5 33.3,10.2 32,9.2 L 31.5,8.8 31.1,9.3 c -0.8,0.9 -1.1,2.5 -1,3.7 0.1,0.9 0.4,1.8 0.9,2.5 -0.4,0.2 -0.9,0.4 -1.3,0.6 -0.9,0.3 -1.8,0.4 -2.7,0.4 L 1.1,16.5 1,17.1 C 0.8,19 1.1,21 1.9,22.8 l 0.4,0.7 0,0.1 c 2.4,4 6.7,5.8 11.4,5.8 9,0 16.4,-3.9 19.9,-12.3 2.3,0.1 4.6,-0.5 5.7,-2.7 l 0.3,-0.5 -0.5,-0.3 C 37.8,12.8 36,12.7 34.5,13.1 l 0,0 z m -12.9,-1.6 -3.9,0 0,3.9 3.9,0 0,-3.9 z m 0,-4.9 -3.9,0 0,3.9 3.9,0 0,-3.9 z m 0,-5 -3.9,0 0,3.9 3.9,0 0,-3.9 z m 4.8,9.9 -3.9,0 0,3.9 3.9,0 0,-3.9 z m -14.5,0 -3.9,0 0,3.9 3.9,0 0,-3.9 z m 4.9,0 -3.9,0 0,3.9 3.9,0 0,-3.9 z m -9.7,0 -3.9,0 0,3.9 3.9,0 0,-3.9 0,0 z m 9.7,-4.9 -3.9,0 0,3.9 3.9,0 0,-3.9 z m -4.9,0 -3.9,0 0,3.9 3.9,0 0,-3.9 z"
                     style="fill:url(#radialGradient4278);fill-opacity:1"
                     inkscape:connector-curvature="0" /></defs><clipPath
                   id="SVGID_4_"
                   style="fill:url(#radialGradient4278);fill-opacity:1"><use
                     xlink:href="#SVGID_2_"
                     style="overflow:visible;fill:url(#radialGradient4278);fill-opacity:1"
                     id="use4246"
                     x="0"
                     y="0"
                     width="100%"
                     height="100%" /></clipPath><g
                   class="st1"
                   id="g4248"
                   clip-path="url(#SVGID_4_)"
                   style="fill:#8a8a8a;fill-opacity:1;fill-rule:nonzero"><g
                     id="g4250"
                     style="fill:#8a8a8a;fill-opacity:1;fill-rule:nonzero"><g
                       id="g4252"
                       style="fill:#8a8a8a;fill-opacity:1;fill-rule:nonzero"><rect
                         id="SVGID_3_"
                         x="-48.799999"
                         y="-21"
                         class="st0"
                         width="1274.8"
                         height="151.39999"
                         style="fill:#8a8a8a;fill-opacity:1;fill-rule:nonzero" /></g></g></g></g></g></g></g></g></g></g><path
     id="docker_2_"
     class="st0"
     d="m 101.9,16.6 c 1.7,-1.5 3.4,-2.9 5.1,-4.4 0.6,-0.5 1.2,-1 1.8,-1.6 -0.5,-0.6 -1.2,-1 -1.9,-1.3 -1.3,-0.5 -2.6,-0.3 -3.9,0.4 -1.6,0.9 -2.3,2.4 -2.2,4.2 0,0.7 0.2,1.4 0.6,2 0.3,0.3 0.4,0.5 0.5,0.7 m 2,1.4 c 0.8,0.3 1.8,0.3 2.7,0.1 0.4,-0.2 1.6,-0.7 2,-0.6 l 0.1,0 0.1,0 c 0.3,0.1 0.5,0.3 0.6,0.6 0.3,0.6 0.2,1.2 -0.4,1.5 l -0.2,0.1 c -2.2,1.3 -4.5,1.1 -6.7,-0.1 -1,-0.6 -1.8,-1.4 -2.4,-2.4 L 99.6,17 c -1.4,-2.4 -1.2,-5 0.4,-7.3 0.5,-0.8 1.3,-1.4 2.1,-1.9 l 0.3,-0.2 c 2.1,-1.2 4.3,-1.1 6.4,-0.1 1.1,0.6 2.1,1.4 2.7,2.5 l 0.1,0.2 c 0.5,0.8 -0.1,1.5 -0.8,2 -0.7,0.6 -1.4,1.2 -2.1,1.8 -1.8,1.4 -3.3,2.7 -4.8,4 z m 16.3,-11 0.2,0 c 0.7,0 1.2,0.5 1.2,1.2 0,1 -0.9,1.2 -1.7,1.2 -1,0 -2,0.6 -2.7,1.3 -0.9,0.9 -1.3,2 -1.3,3.2 l 0,5.6 c 0,0.6 -0.4,1.2 -1.1,1.2 l -0.2,0 c -0.7,0 -1.1,-0.5 -1.1,-1.2 l 0,-5.9 c 0,-2.3 1.1,-4.1 2.9,-5.4 1.3,-0.8 2.5,-1.2 3.8,-1.2 z M 91.6,10.9 C 92.5,10 93.4,9.1 94.3,8.2 94.6,8 95.5,6.9 95.9,6.9 l 0.4,0 0,0 c 0.5,0.1 0.9,0.4 0.9,1 l 0,0.2 c 0,0.4 -0.5,0.8 -0.7,1.1 -0.5,0.6 -1.1,1.1 -1.6,1.7 l -2.8,2.8 c 1.2,1.2 2.4,2.4 3.6,3.6 0.3,0.3 0.7,0.7 1,1 0.1,0.1 0.3,0.3 0.4,0.4 0.1,0.2 0.2,0.3 0.2,0.5 l 0,0.2 0,0.1 c -0.1,0.5 -0.5,0.9 -1,0.9 l -0.2,0 c -0.4,0 -0.8,-0.4 -1.1,-0.7 -0.5,-0.5 -1.1,-1 -1.6,-1.6 l -1.8,-1.7 0,2.8 c 0,0.6 -0.4,1.2 -1.1,1.2 l -0.2,0 c -0.7,0 -1.1,-0.5 -1.1,-1.2 l 0,-15.4 c 0,-0.6 0.4,-1.1 1.1,-1.1 l 0.2,0 c 0.7,0 1.1,0.5 1.1,1.1 l 0,7.1 z M 84.2,9.4 c -0.3,-0.2 -1,-0.2 -1.4,-0.2 -1.9,-0.1 -3.3,1 -4.1,2.7 -0.3,0.6 -0.4,1.2 -0.4,1.9 0,2 1,3.4 2.8,4.2 0.6,0.3 1.5,0.4 2.2,0.4 0.6,0 1.5,-0.4 2,-0.6 l 0.1,0 0.4,0 0,0 c 0.5,0.1 0.9,0.4 0.9,1 l 0,0.2 c 0,1.4 -2.6,1.7 -3.5,1.8 -3.4,0.2 -6,-1.7 -7,-4.9 C 76,15.3 76,14.8 76,14.2 l 0,-0.5 c 0,-2.5 1.2,-4.5 3.4,-5.7 1,-0.6 2.1,-0.9 3.3,-0.9 l 0.5,0 c 1.2,0 2.4,0.3 3.4,1 l 0.1,0.1 0.1,0.1 C 86.9,8.5 87,8.7 87,8.9 l 0,0.2 c 0,0.6 -0.4,0.9 -1,1 l 0,0 -0.1,0 C 85.2,9.9 84.4,9.5 84.2,9.4 Z m -21,4.3 c 0,1.7 0.9,3 2.3,3.9 0.7,0.4 1.5,0.6 2.3,0.6 1.7,0 3,-0.9 3.9,-2.3 0.4,-0.7 0.6,-1.5 0.6,-2.3 0,-1.6 -0.8,-2.9 -2.1,-3.8 -0.7,-0.5 -1.6,-0.7 -2.4,-0.7 -1.9,0 -3.3,1 -4.1,2.7 -0.5,0.7 -0.5,1.3 -0.5,1.9 z m 4.2,-6.8 0.3,0 c 2.7,0 4.7,1.3 6,3.6 0.5,0.9 0.8,1.9 0.8,3 l 0,0.5 c 0,2.5 -1.2,4.5 -3.4,5.7 -1,0.6 -2.1,0.9 -3.3,0.9 l -0.5,0 c -2.5,0 -4.5,-1.2 -5.7,-3.4 -0.6,-1 -0.9,-2.1 -0.9,-3.3 l 0,-0.5 c 0,-2.5 1.2,-4.5 3.4,-5.7 1.1,-0.5 2.1,-0.8 3.3,-0.8 z M 48,13.7 c 0,1.8 0.9,3.2 2.5,4 0.6,0.3 1.3,0.5 2.1,0.5 1.8,0 3.1,-0.8 4,-2.3 0.4,-0.7 0.6,-1.5 0.6,-2.3 0,-1.6 -0.7,-2.8 -2,-3.7 -0.8,-0.5 -1.6,-0.8 -2.6,-0.8 -1.9,0 -3.3,1 -4.1,2.7 -0.3,0.7 -0.5,1.3 -0.5,1.9 z m 9.2,-5.1 0,-4.9 c 0,-0.6 0.4,-1.2 1.1,-1.2 l 0.2,0 c 0.7,0 1.1,0.5 1.1,1.2 l 0,10.3 c 0,2.5 -1.2,4.5 -3.4,5.7 -1,0.6 -2.1,0.9 -3.3,0.9 l -0.5,0 c -2.5,0 -4.5,-1.2 -5.7,-3.4 -0.6,-1 -0.9,-2.1 -0.9,-3.3 l 0,-0.5 c 0,-2.5 1.2,-4.5 3.4,-5.7 1,-0.6 2.1,-0.9 3.3,-0.9 l 0.5,0 c 1.5,0.1 3,0.7 4.2,1.8 z"
     style="fill:none;fill-opacity:1"
     inkscape:connector-curvature="0" /></svg>