<?xml version="1.0" encoding="UTF-8" standalone="no"?>
<!-- Generator: Adobe Illustrator 15.0.0, SVG Export Plug-In . SVG Version: 6.00 Build 0)  -->

<svg
   xmlns:dc="http://purl.org/dc/elements/1.1/"
   xmlns:cc="http://creativecommons.org/ns#"
   xmlns:rdf="http://www.w3.org/1999/02/22-rdf-syntax-ns#"
   xmlns:svg="http://www.w3.org/2000/svg"
   xmlns="http://www.w3.org/2000/svg"
   xmlns:sodipodi="http://sodipodi.sourceforge.net/DTD/sodipodi-0.dtd"
   xmlns:inkscape="http://www.inkscape.org/namespaces/inkscape"
   version="1.1"
   id="Слой_1"
   x="0px"
   y="0px"
   width="33.099998"
   height="33"
   viewBox="0 -4.906 33.682352 33.418687"
   enable-background="new 0 -4.906 32.563 32.406"
   xml:space="preserve"
   inkscape:version="0.91 r13725"
   sodipodi:docname="logo.svg"><metadata
     id="metadata6390"><rdf:RDF><cc:Work
         rdf:about=""><dc:format>image/svg+xml</dc:format><dc:type
           rdf:resource="http://purl.org/dc/dcmitype/StillImage" /><dc:title></dc:title></cc:Work></rdf:RDF></metadata><defs
     id="defs6388"><inkscape:perspective
       sodipodi:type="inkscape:persp3d"
       inkscape:vp_x="0 : 16.709343 : 1"
       inkscape:vp_y="0 : 1000 : 0"
       inkscape:vp_z="33.682352 : 16.709343 : 1"
       inkscape:persp3d-origin="16.841176 : 11.139562 : 1"
       id="perspective7422" /><marker
       inkscape:stockid="Arrow1Lend"
       orient="auto"
       refY="0.0"
       refX="0.0"
       id="Arrow1Lend"
       style="overflow:visible;"
       inkscape:isstock="true"><path
         id="path7148"
         d="M 0.0,0.0 L 5.0,-5.0 L -12.5,0.0 L 5.0,5.0 L 0.0,0.0 z "
         style="fill-rule:evenodd;stroke:#ffffff;stroke-width:1pt;stroke-opacity:1;fill:#167795;fill-opacity:1"
         transform="scale(0.8) rotate(180) translate(12.5,0)" /></marker></defs><sodipodi:namedview
     pagecolor="#ffffff"
     bordercolor="#666666"
     borderopacity="1"
     objecttolerance="10"
     gridtolerance="10"
     guidetolerance="10"
     inkscape:pageopacity="0"
     inkscape:pageshadow="2"
     inkscape:window-width="1278"
     inkscape:window-height="708"
     id="namedview6386"
     showgrid="false"
     inkscape:zoom="9.73"
     inkscape:cx="26.620314"
     inkscape:cy="25.123531"
     inkscape:window-x="0"
     inkscape:window-y="0"
     inkscape:window-maximized="0"
     inkscape:current-layer="layer6" /><text
     xml:space="preserve"
     style="font-style:normal;font-weight:normal;font-size:40.70375061px;line-height:125%;font-family:sans-serif;letter-spacing:0px;word-spacing:0px;fill:#000000;fill-opacity:1;stroke:none;stroke-width:1px;stroke-linecap:butt;stroke-linejoin:miter;stroke-opacity:1"
     x="15.177669"
     y="26.388433"
     id="text6936"
     sodipodi:linespacing="125%"><tspan
       sodipodi:role="line"
       id="tspan6938"
       x="15.177669"
       y="26.388433" /></text>
<g
     inkscape:groupmode="layer"
     id="layer4"
     inkscape:label="Fond blanc"
     style="display:none"><rect
       y="-4.4069262"
       stroke-miterlimit="10"
       width="32.563"
       height="32.562"
       id="rect6384"
       style="fill:#000000;fill-opacity:0.26881726;stroke:#ffffff;stroke-miterlimit:10;stroke-opacity:1"
       x="0.58530462"
       inkscape:transform-center-x="0.82787288"
       inkscape:transform-center-y="-3.725428" /></g><g
     inkscape:groupmode="layer"
     id="layer5"
     inkscape:label="Fond rose"
     style="display:inline"><rect
       inkscape:transform-center-y="-3.725428"
       inkscape:transform-center-x="0.82787288"
       x="0.58530414"
       style="display:inline;fill:#000000;fill-opacity:0;stroke:#ff7777;stroke-miterlimit:10;stroke-opacity:1"
       id="rect7470"
       height="32.562"
       width="32.563"
       stroke-miterlimit="10"
       y="-4.4069257" /></g><g
     inkscape:groupmode="layer"
     id="layer1"
     inkscape:label="GT rose"
     style="display:none"><g
       id="g7476"><path
         sodipodi:nodetypes="ccscsccccscscsccccccccccscscscscscsccscscscscscscscsccc"
         inkscape:connector-curvature="0"
         id="path7131"
         d="m 22.869516,3.928646 -4.390459,0 c 0,0 0.09757,-1.7561835 -2.926973,-2.6342754 -3.024538,-0.8780922 -4.683156,0.6829603 -4.683156,0.6829603 0,0 -1.1707893,0.9756576 -1.4634873,1.7561836 -0.292696,0.780526 -0.487828,2.6342752 -0.487828,2.6342752 l 0,3.6099335 0.195132,0.8780908 0.292015,0.927318 c 0,0 1.0244223,1.463461 1.2683323,1.609808 0.243911,0.146346 0.780513,0.536602 0.780513,0.536602 0,0 1.512244,0.585385 2.097629,0.536603 0.585384,-0.04878 0.975642,-0.04878 0.975642,-0.04878 0,0 1.609807,-0.146346 2.048845,-0.390257 0.439039,-0.24391 1.365898,-0.975641 1.365898,-0.975641 0,0 0.439039,-0.439038 0.536602,-0.829295 0.09757,-0.390256 0.243911,-0.780513 0.243911,-0.780513 l 0,-1.4634608 -4.34757,0 -0.0558,-2.7942648 12.506807,0 0.160383,2.8988476 -4.068565,-0.0558 0,1.609808 c 0,0 -0.146345,1.170769 -0.536602,2.000064 -0.390257,0.829295 -1.853718,2.243974 -1.853718,2.243974 0,0 -1.121988,0.829295 -1.853718,1.073206 -0.731731,0.24391 -2.341539,0.585385 -2.341539,0.585385 0,0 -1.658589,0.292692 -2.634231,0.195127 -0.975641,-0.09757 -1.41468,-0.146345 -1.41468,-0.146345 0,0 -1.414679,-0.09757 -2.2927563,-0.439039 -0.878077,-0.341475 -2.1951932,-1.073205 -2.1951932,-1.073205 0,0 -0.7317299,-0.390256 -1.3658967,-1.121988 -0.634167,-0.73173 -1.463462,-2.536667 -1.463462,-2.536667 0,0 -0.292692,-0.585384 -0.341474,-1.268333 -0.04878,-0.682949 -0.146346,-1.121988 -0.146346,-1.121988 l -0.09757,-3.8537823 c 0,0 0,-1.0732053 0.195127,-1.9025002 0.195129,-0.8292949 0.780514,-2.0488464 0.780514,-2.0488464 0,0 0.390256,-0.7317309 0.829294,-1.2195517 0.439039,-0.48782 1.4634628,-1.365897 1.4634628,-1.365897 0,0 0.6341661,-0.48782105 1.2683321,-0.7805131 0.634167,-0.292692 1.7073733,-0.585385 1.7073733,-0.585385 0,0 0.829294,-0.195128 1.414679,-0.292692 0.585385,-0.09756 2.048847,-0.146346 2.048847,-0.146346 0,0 1.024422,0 1.609808,0.09756 0.585385,0.09756 1.024422,0.146346 1.024422,0.146346 0,0 0.975642,0.292692 1.41468,0.439038 0.439039,0.146347 0.926859,0.439039 0.926859,0.439039 0,0 0.634167,0.24391005 0.926859,0.4878201 0.292693,0.243911 0.926859,0.829295 0.926859,0.829295 0,0 0.634168,0.536603 0.878078,0.9268588 0.24391,0.3902569 0.585384,0.9756416 0.585384,0.9756416 l 0.341475,0.926859 z"
         style="fill:#ff7777;fill-opacity:1;fill-rule:evenodd;stroke:none;stroke-width:0.20351873;stroke-linecap:round;stroke-linejoin:round;stroke-miterlimit:4;stroke-dasharray:none;stroke-dashoffset:0;stroke-opacity:1" /><path
         inkscape:connector-curvature="0"
         id="path7115"
         d="m 12.270874,7.0098784 17.26914,0 0,3.3172346 -6.34178,-0.09757 0,15.903219 -4.48802,0 0,-15.805653 -6.43934,0 z"
         style="fill:#ff7777;fill-opacity:1;fill-rule:evenodd;stroke:none;stroke-width:0.20351873;stroke-linecap:round;stroke-linejoin:round;stroke-miterlimit:4;stroke-dasharray:none;stroke-opacity:1" /></g></g><g
     inkscape:groupmode="layer"
     id="layer6"
     inkscape:label="GT blanc"
     style="display:inline"><g
       style="display:inline;fill:#ffffff;fill-opacity:1"
       id="g7481"
       transform="matrix(0.78061083,0,0,0.78061083,3.4709637,2.2820024)"><path
         style="fill:#ffffff;fill-opacity:1;fill-rule:evenodd;stroke:none;stroke-width:0.20351873;stroke-linecap:round;stroke-linejoin:round;stroke-miterlimit:4;stroke-dasharray:none;stroke-dashoffset:0;stroke-opacity:1"
         d="m 22.869516,3.928646 -4.390459,0 c 0,0 0.09757,-1.7561835 -2.926973,-2.6342754 -3.024538,-0.8780922 -4.683156,0.6829603 -4.683156,0.6829603 0,0 -1.1707893,0.9756576 -1.4634873,1.7561836 -0.292696,0.780526 -0.487828,2.6342752 -0.487828,2.6342752 l 0,3.6099335 0.195132,0.8780908 0.292015,0.927318 c 0,0 1.0244223,1.463461 1.2683323,1.609808 0.243911,0.146346 0.780513,0.536602 0.780513,0.536602 0,0 1.512244,0.585385 2.097629,0.536603 0.585384,-0.04878 0.975642,-0.04878 0.975642,-0.04878 0,0 1.609807,-0.146346 2.048845,-0.390257 0.439039,-0.24391 1.365898,-0.975641 1.365898,-0.975641 0,0 0.439039,-0.439038 0.536602,-0.829295 0.09757,-0.390256 0.243911,-0.780513 0.243911,-0.780513 l 0,-1.4634608 -4.34757,0 -0.0558,-2.7942648 12.506807,0 0.160383,2.8988476 -4.068565,-0.0558 0,1.609808 c 0,0 -0.146345,1.170769 -0.536602,2.000064 -0.390257,0.829295 -1.853718,2.243974 -1.853718,2.243974 0,0 -1.121988,0.829295 -1.853718,1.073206 -0.731731,0.24391 -2.341539,0.585385 -2.341539,0.585385 0,0 -1.658589,0.292692 -2.634231,0.195127 -0.975641,-0.09757 -1.41468,-0.146345 -1.41468,-0.146345 0,0 -1.414679,-0.09757 -2.2927563,-0.439039 -0.878077,-0.341475 -2.1951932,-1.073205 -2.1951932,-1.073205 0,0 -0.7317299,-0.390256 -1.3658967,-1.121988 -0.634167,-0.73173 -1.463462,-2.536667 -1.463462,-2.536667 0,0 -0.292692,-0.585384 -0.341474,-1.268333 -0.04878,-0.682949 -0.146346,-1.121988 -0.146346,-1.121988 l -0.09757,-3.8537823 c 0,0 0,-1.0732053 0.195127,-1.9025002 0.195129,-0.8292949 0.780514,-2.0488464 0.780514,-2.0488464 0,0 0.390256,-0.7317309 0.829294,-1.2195517 0.439039,-0.48782 1.4634628,-1.365897 1.4634628,-1.365897 0,0 0.6341661,-0.48782105 1.2683321,-0.7805131 0.634167,-0.292692 1.7073733,-0.585385 1.7073733,-0.585385 0,0 0.829294,-0.195128 1.414679,-0.292692 0.585385,-0.09756 2.048847,-0.146346 2.048847,-0.146346 0,0 1.024422,0 1.609808,0.09756 0.585385,0.09756 1.024422,0.146346 1.024422,0.146346 0,0 0.975642,0.292692 1.41468,0.439038 0.439039,0.146347 0.926859,0.439039 0.926859,0.439039 0,0 0.634167,0.24391005 0.926859,0.4878201 0.292693,0.243911 0.926859,0.829295 0.926859,0.829295 0,0 0.634168,0.536603 0.878078,0.9268588 0.24391,0.3902569 0.585384,0.9756416 0.585384,0.9756416 l 0.341475,0.926859 z"
         id="path7483"
         inkscape:connector-curvature="0"
         sodipodi:nodetypes="ccscsccccscscsccccccccccscscscscscsccscscscscscscscsccc" /><path
         style="fill:#ffffff;fill-opacity:1;fill-rule:evenodd;stroke:none;stroke-width:0.20351873;stroke-linecap:round;stroke-linejoin:round;stroke-miterlimit:4;stroke-dasharray:none;stroke-opacity:1"
         d="m 12.270874,7.0098784 17.26914,0 0,3.3172346 -6.34178,-0.09757 0,15.903219 -4.48802,0 0,-15.805653 -6.43934,0 z"
         id="path7485"
         inkscape:connector-curvature="0" /></g></g><g
     inkscape:groupmode="layer"
     id="layer3"
     inkscape:label="Layer 1"
     style="display:none"><g
       id="g6948"
       style="fill:#ff7777;fill-opacity:0.19095477"
       transform="matrix(0.83048889,0,0,0.70473632,47.971426,-4.6670062)"><text
         xml:space="preserve"
         style="font-style:normal;font-variant:normal;font-weight:normal;font-stretch:normal;font-size:40.70375061px;line-height:125%;font-family:'.SF Compact Text';-inkscape-font-specification:'.SF Compact Text';letter-spacing:0px;word-spacing:0px;fill:#ff7777;fill-opacity:0.19095477;stroke:none;stroke-width:1px;stroke-linecap:butt;stroke-linejoin:miter;stroke-opacity:1"
         x="-6.0710697"
         y="29.635096"
         id="text6944"
         sodipodi:linespacing="125%"><tspan
           sodipodi:role="line"
           id="tspan6946"
           x="-6.0710697"
           y="29.635096"
           style="font-style:normal;font-variant:normal;font-weight:600;font-stretch:normal;font-family:'.SF Compact Text';-inkscape-font-specification:'.SF Compact Text Semi-Bold';fill:#ff7777;fill-opacity:0.19095477">T</tspan></text>
</g><text
       transform="scale(1.0855594,0.92118405)"
       xml:space="preserve"
       style="font-style:normal;font-variant:normal;font-weight:normal;font-stretch:normal;font-size:31.1397171px;line-height:125%;font-family:'.SF Compact Text';-inkscape-font-specification:'.SF Compact Text';letter-spacing:0px;word-spacing:0px;fill:#96ffff;fill-opacity:0.78391957;stroke:none;stroke-width:1px;stroke-linecap:butt;stroke-linejoin:miter;stroke-opacity:1"
       x="31.101276"
       y="8.4319506"
       id="text6932"
       sodipodi:linespacing="125%"><tspan
         style="font-style:normal;font-variant:normal;font-weight:600;font-stretch:normal;font-family:'.SF Compact Text';-inkscape-font-specification:'.SF Compact Text Semi-Bold';fill:#96ffff;fill-opacity:0.78391957"
         sodipodi:role="line"
         id="tspan6934"
         x="31.101276"
         y="8.4319506">G</tspan></text>
</g></svg>